<mxfile host="app.diagrams.net" modified="2021-06-17T07:24:24.989Z" agent="5.0 (Windows NT 10.0; Win64; x64) AppleWebKit/537.36 (KHTML, like Gecko) Chrome/91.0.4472.101 Safari/537.36 Edg/91.0.864.48" etag="8hb1cxazLwz4F1XcsYil" version="14.7.10" type="github">
  <diagram id="1wEF1nyU8ahQc06JzJ8S" name="第 1 页">
    <mxGraphModel dx="1374" dy="762" grid="1" gridSize="10" guides="1" tooltips="1" connect="1" arrows="1" fold="1" page="1" pageScale="1" pageWidth="1100" pageHeight="850" math="0" shadow="0">
      <root>
        <mxCell id="0" />
        <mxCell id="1" parent="0" />
        <mxCell id="NAHPh3_D5XXm3AxepicN-14" value="" style="rounded=1;whiteSpace=wrap;html=1;strokeWidth=3;strokeColor=#B5739D;dashed=1;" vertex="1" parent="1">
          <mxGeometry x="207.5" y="130" width="75" height="290" as="geometry" />
        </mxCell>
        <mxCell id="NAHPh3_D5XXm3AxepicN-1" value="" style="whiteSpace=wrap;html=1;aspect=fixed;" vertex="1" parent="1">
          <mxGeometry x="230" y="160" width="30" height="30" as="geometry" />
        </mxCell>
        <mxCell id="NAHPh3_D5XXm3AxepicN-2" value="" style="whiteSpace=wrap;html=1;aspect=fixed;" vertex="1" parent="1">
          <mxGeometry x="230" y="190" width="30" height="30" as="geometry" />
        </mxCell>
        <mxCell id="NAHPh3_D5XXm3AxepicN-3" value="" style="whiteSpace=wrap;html=1;aspect=fixed;" vertex="1" parent="1">
          <mxGeometry x="230" y="220" width="30" height="30" as="geometry" />
        </mxCell>
        <mxCell id="NAHPh3_D5XXm3AxepicN-4" value="" style="whiteSpace=wrap;html=1;aspect=fixed;" vertex="1" parent="1">
          <mxGeometry x="230" y="250" width="30" height="30" as="geometry" />
        </mxCell>
        <mxCell id="NAHPh3_D5XXm3AxepicN-5" value="" style="whiteSpace=wrap;html=1;aspect=fixed;" vertex="1" parent="1">
          <mxGeometry x="230" y="280" width="30" height="30" as="geometry" />
        </mxCell>
        <mxCell id="NAHPh3_D5XXm3AxepicN-6" value="" style="whiteSpace=wrap;html=1;aspect=fixed;" vertex="1" parent="1">
          <mxGeometry x="230" y="310" width="30" height="30" as="geometry" />
        </mxCell>
        <mxCell id="NAHPh3_D5XXm3AxepicN-7" value="" style="whiteSpace=wrap;html=1;aspect=fixed;" vertex="1" parent="1">
          <mxGeometry x="230" y="340" width="30" height="30" as="geometry" />
        </mxCell>
        <mxCell id="NAHPh3_D5XXm3AxepicN-8" value="" style="whiteSpace=wrap;html=1;aspect=fixed;" vertex="1" parent="1">
          <mxGeometry x="230" y="360" width="30" height="30" as="geometry" />
        </mxCell>
        <mxCell id="NAHPh3_D5XXm3AxepicN-12" value="" style="rounded=1;whiteSpace=wrap;html=1;strokeColor=#FFE599;fontStyle=1" vertex="1" parent="1">
          <mxGeometry x="670" y="70" width="120" height="60" as="geometry" />
        </mxCell>
      </root>
    </mxGraphModel>
  </diagram>
</mxfile>
